HIERARCHY
ROOT Hips
{
	OFFSET 0.000000 97.420761 0.000000
	CHANNELS 6 Xposition Yposition Zposition Xrotation Yrotation Zrotation
	JOINT RightUpLeg
	{
		OFFSET -8.571318 0.002251 -0.000250
		CHANNELS 6 Xposition Yposition Zposition Xrotation Yrotation Zrotation
		JOINT RightLeg
		{
			OFFSET 0.000000 -44.326080 -0.000105
			CHANNELS 6 Xposition Yposition Zposition Xrotation Yrotation Zrotation
			JOINT RightFoot
			{
				OFFSET 0.000000 -43.324329 -0.000176
				CHANNELS 6 Xposition Yposition Zposition Xrotation Yrotation Zrotation
				JOINT RightToeBase
				{
					OFFSET 0.000000 -7.938133 18.050686
					CHANNELS 6 Xposition Yposition Zposition Xrotation Yrotation Zrotation
					End Site
					{
						OFFSET 0.000000 0.000000 19.719055
					}
				}
			}
		}
	}
	JOINT LeftUpLeg
	{
		OFFSET 8.571318 -0.000084 0.000009
		CHANNELS 6 Xposition Yposition Zposition Xrotation Yrotation Zrotation
		JOINT LeftLeg
		{
			OFFSET 0.000000 -44.326080 -0.000105
			CHANNELS 6 Xposition Yposition Zposition Xrotation Yrotation Zrotation
			JOINT LeftFoot
			{
				OFFSET 0.000000 -43.324329 -0.000176
				CHANNELS 6 Xposition Yposition Zposition Xrotation Yrotation Zrotation
				JOINT LeftToeBase
				{
					OFFSET 0.000000 -7.938133 18.050686
					CHANNELS 6 Xposition Yposition Zposition Xrotation Yrotation Zrotation
					End Site
					{
						OFFSET 0.000000 0.000000 19.719055
					}
				}
			}
		}
	}
	JOINT Spine
	{
		OFFSET 0.000000 10.422829 -1.158092
		CHANNELS 6 Xposition Yposition Zposition Xrotation Yrotation Zrotation
		JOINT Spine1
		{
			OFFSET 0.000000 11.587624 0.000000
			CHANNELS 3 Xrotation Yrotation Zrotation
			JOINT Spine2
			{
				OFFSET 0.000000 10.579559 -0.000443
				CHANNELS 6 Xposition Yposition Zposition Xrotation Yrotation Zrotation
				JOINT Spine3
				{
					OFFSET 0.000000 10.567749 -0.000444
					CHANNELS 6 Xposition Yposition Zposition Xrotation Yrotation Zrotation
					JOINT LeftShoulder
					{
						OFFSET 3.218383 8.290512 0.000000
						CHANNELS 6 Xposition Yposition Zposition Xrotation Yrotation Zrotation
						JOINT LeftArm
						{
							OFFSET 15.038529 0.000000 0.000000
							CHANNELS 3 Xrotation Yrotation Zrotation
							JOINT LeftForeArm
							{
								OFFSET 32.129166 0.000000 0.000000
								CHANNELS 3 Xrotation Yrotation Zrotation
								JOINT LeftHand
								{
									OFFSET 26.275406 0.000000 0.000000
									CHANNELS 3 Xrotation Yrotation Zrotation
									End Site
									{
										OFFSET 26.275406 0.000000 0.000000
									}
								}
							}
						}
					}
					JOINT RightShoulder
					{
						OFFSET -3.218383 8.290512 0.000000
						CHANNELS 6 Xposition Yposition Zposition Xrotation Yrotation Zrotation
						JOINT RightArm
						{
							OFFSET -15.038529 0.000000 0.000000
							CHANNELS 3 Xrotation Yrotation Zrotation
							JOINT RightForeArm
							{
								OFFSET -32.129166 0.000000 0.000000
								CHANNELS 3 Xrotation Yrotation Zrotation
								JOINT RightHand
								{
									OFFSET -26.275406 0.000000 0.000000
									CHANNELS 3 Xrotation Yrotation Zrotation
									End Site
									{
										OFFSET -26.275406 0.000000 0.000000
									}
								}
							}
						}
					}
					JOINT Neck
					{
						OFFSET 0.000000 14.789474 0.000000
						CHANNELS 6 Xposition Yposition Zposition Xrotation Yrotation Zrotation
						JOINT Head
						{
							OFFSET 0.000000 9.838806 0.000953
							CHANNELS 6 Xposition Yposition Zposition Xrotation Yrotation Zrotation
							End Site
							{
								OFFSET 0.000000 9.838806 0.000000
							}
						}
					}
				}
			}
		}
	}
}
MOTION
Frames: 6
Frame Time: 0.016667
-80.544426 46.870209 55.243813 77.693252 22.808823 -65.382286 -8.571322 0.002250 -0.000252 -58.731506 -0.671550 -5.790645 -0.000006 -44.326077 -0.000104 105.779502 -0.324330 -0.600919 0.000011 -43.324333 -0.000177 -1.509954 18.450393 -4.381865 0.000010 -7.938142 18.050690 -56.309691 0.803432 -18.640066 8.571310 -0.000092 0.000011 -58.475244 3.667845 12.453177 0.000004 -44.326073 -0.000108 105.473304 -0.407522 -0.575278 -0.000009 -43.324337 -0.000175 -6.277228 -6.928303 -19.130771 -0.000000 -7.938127 18.050688 -68.246226 4.078201 -12.940385 -0.000006 10.422820 -1.158095 6.673458 -1.245182 -1.905273 -2.854946 -0.435489 -0.913511 -0.000007 10.579557 -0.000437 2.965490 -0.435395 -0.913556 0.000001 10.567748 -0.000447 8.061163 -0.390286 -0.651014 3.218387 8.290510 -0.000002 -8.083175 -6.767266 -0.286231 -48.635117 -39.313213 -72.848831 -30.152000 -7.574327 2.922398 16.946497 -60.644000 39.501429 -3.218377 8.290509 0.000001 -3.592017 17.513336 6.184687 -60.934645 33.646762 75.961293 -11.751767 6.323210 -6.786750 4.251884 48.416851 -38.375951 0.000006 14.789474 -0.000004 15.220882 3.503015 0.958503 0.000004 9.838806 0.000952 -7.863589 6.017943 3.047360 
-80.551315 46.870682 55.242512 77.690731 22.806160 -65.377143 -8.571327 0.002242 -0.000247 -58.743664 -0.668434 -5.788290 0.000002 -44.326088 -0.000107 105.791284 -0.327795 -0.597637 0.000012 -43.324329 -0.000176 -1.516811 18.439409 -4.378668 -0.000005 -7.938138 18.050684 -56.328307 0.808843 -18.614747 8.571311 -0.000084 0.000011 -58.484335 3.670387 12.455092 -0.000002 -44.326084 -0.000114 105.481446 -0.405052 -0.578796 0.000000 -43.324333 -0.000175 -6.274057 -6.927123 -19.131585 -0.000003 -7.938111 18.050686 -68.246219 4.081437 -12.950121 -0.000005 10.422834 -1.158088 6.672633 -1.241896 -1.907061 -2.855316 -0.433938 -0.914104 0.000001 10.579565 -0.000445 2.965116 -0.433844 -0.914149 -0.000006 10.567742 -0.000442 8.060879 -0.389172 -0.651567 3.218376 8.290521 0.000002 -8.076861 -6.773712 -0.281358 -48.652418 -39.306977 -72.853243 -30.154486 -7.566636 2.927939 16.949184 -60.648269 39.500637 -3.218390 8.290514 0.000003 -3.589435 17.506810 6.185359 -60.945894 33.646629 75.970193 -11.752484 6.326821 -6.794186 4.255613 48.414587 -38.372211 -0.000010 14.789475 -0.000004 15.219299 3.499895 0.952530 0.000016 9.838783 0.000953 -7.866205 6.014450 3.035376 
-80.558876 46.870758 55.241993 77.689857 22.805022 -65.373311 -8.571316 0.002249 -0.000247 -58.755432 -0.666799 -5.786599 -0.000007 -44.326077 -0.000111 105.806085 -0.327693 -0.593571 0.000014 -43.324318 -0.000176 -1.521000 18.428281 -4.378415 -0.000015 -7.938127 18.050688 -56.325899 0.806987 -18.598325 8.571324 -0.000085 0.000014 -58.492900 3.669387 12.456743 0.000002 -44.326080 -0.000104 105.489847 -0.403739 -0.582607 -0.000004 -43.324329 -0.000177 -6.271708 -6.931714 -19.129435 -0.000001 -7.938119 18.050684 -68.250665 4.082294 -12.950062 0.000006 10.422832 -1.158088 6.671746 -1.237731 -1.911434 -2.855711 -0.431846 -0.915781 -0.000002 10.579557 -0.000439 2.964722 -0.431752 -0.915826 0.000003 10.567751 -0.000443 8.060579 -0.387729 -0.652965 3.218388 8.290513 0.000004 -8.074656 -6.781681 -0.275243 -48.678895 -39.295386 -72.872402 -30.149128 -7.555258 2.948548 16.948156 -60.655331 39.491901 -3.218379 8.290503 0.000006 -3.590226 17.495630 6.186970 -60.955053 33.645010 75.975828 -11.754396 6.323763 -6.791147 4.256445 48.415762 -38.371347 0.000002 14.789454 0.000005 15.218959 3.499084 0.953876 0.000005 9.838800 0.000953 -7.866839 6.012470 3.037541 
-80.567116 46.870674 55.241817 77.689679 22.804926 -65.370149 -8.571324 0.002251 -0.000249 -58.767125 -0.665794 -5.785081 0.000004 -44.326084 -0.000102 105.822921 -0.325775 -0.588876 0.000002 -43.324329 -0.000176 -1.523880 18.417245 -4.379846 -0.000004 -7.938148 18.050694 -56.312475 0.801391 -18.586886 8.571313 -0.000084 0.000007 -58.501417 3.666554 12.458364 -0.000001 -44.326084 -0.000099 105.498836 -0.402427 -0.586522 -0.000005 -43.324329 -0.000178 -6.269673 -6.940141 -19.125443 -0.000001 -7.938119 18.050684 -68.257161 4.081719 -12.944636 -0.000002 10.422835 -1.158096 6.671144 -1.233313 -1.917134 -2.855974 -0.429566 -0.918029 0.000005 10.579552 -0.000442 2.964456 -0.429470 -0.918071 -0.000017 10.567747 -0.000444 8.060375 -0.386186 -0.654805 3.218381 8.290520 0.000002 -8.074260 -6.789743 -0.268705 -48.710502 -39.281849 -72.898466 -30.140655 -7.542615 2.976179 16.945573 -60.663882 39.479176 -3.218383 8.290507 0.000006 -3.592120 17.482713 6.188686 -60.963584 33.642944 75.979721 -11.758127 6.318809 -6.783194 4.256443 48.418494 -38.371846 -0.000006 14.789479 0.000004 15.219506 3.499669 0.958402 -0.000005 9.838802 0.000950 -7.865992 6.011867 3.045975 
-80.577057 46.871147 55.241920 77.689898 22.805795 -65.367171 -8.571317 0.002249 -0.000245 -58.780075 -0.667020 -5.783122 -0.000004 -44.326080 -0.000109 105.840789 -0.324017 -0.585880 0.000004 -43.324329 -0.000176 -1.525923 18.406537 -4.382811 -0.000013 -7.938140 18.050686 -56.301222 0.796833 -18.579028 8.571321 -0.000085 0.000011 -58.511478 3.664894 12.460418 0.000008 -44.326077 -0.000110 105.509115 -0.400294 -0.588205 -0.000009 -43.324341 -0.000172 -6.266412 -6.950464 -19.120886 0.000004 -7.938141 18.050690 -68.262154 4.080392 -12.938439 0.000005 10.422832 -1.158086 6.671761 -1.229019 -1.923709 -2.855692 -0.427278 -0.920671 -0.000000 10.579573 -0.000445 2.964743 -0.427184 -0.920717 -0.000004 10.567751 -0.000445 8.060582 -0.384667 -0.656943 3.218386 8.290529 0.000007 -8.071765 -6.797792 -0.263176 -48.740691 -39.273427 -72.916805 -30.134924 -7.535263 2.996699 16.945424 -60.670897 39.469273 -3.218378 8.290525 0.000005 -3.589688 17.470961 6.190405 -60.971398 33.642455 75.977938 -11.767483 6.325965 -6.772103 4.259909 48.418917 -38.372822 0.000008 14.789483 -0.000004 15.219741 3.500754 0.963207 0.000011 9.838792 0.000959 -7.865741 6.012058 3.055130 
-80.588341 46.872650 55.242420 77.690506 22.807965 -65.364863 -8.571321 0.002251 -0.000264 -58.793346 -0.671946 -5.780588 -0.000008 -44.326073 -0.000097 105.857379 -0.322364 -0.585914 0.000010 -43.324322 -0.000174 -1.526020 18.396927 -4.388320 0.000006 -7.938120 18.050688 -56.297161 0.795264 -18.577025 8.571320 -0.000084 0.000003 -58.522898 3.666032 12.463045 -0.000009 -44.326077 -0.000105 105.519879 -0.396414 -0.585528 -0.000004 -43.324322 -0.000174 -6.261084 -6.962831 -19.116105 -0.000003 -7.938130 18.050690 -68.263246 4.077934 -12.932288 -0.000005 10.422828 -1.158100 6.674548 -1.226170 -1.930279 -2.854439 -0.425621 -0.923407 0.000002 10.579553 -0.000445 2.965990 -0.425524 -0.923448 -0.000003 10.567755 -0.000443 8.061519 -0.383622 -0.659105 3.218379 8.290510 -0.000001 -8.064347 -6.803250 -0.260893 -48.762616 -39.277324 -72.914721 -30.136769 -7.538667 2.997506 16.951782 -60.674531 39.469245 -3.218390 8.290516 0.000004 -3.578064 17.464065 6.190288 -60.976063 33.647998 75.964585 -11.788085 6.357265 -6.753815 4.269762 48.413457 -38.375162 -0.000007 14.789476 -0.000008 15.217870 3.503082 0.966616 -0.000002 9.838811 0.000950 -7.869427 6.014990 3.062298 
